<svg width="29" height="29" viewBox="0 0 29 29" fill="none" xmlns="http://www.w3.org/2000/svg">
<path d="M24.7917 26.5071V7.639H19.6459V2.49316H4.20839V26.5071H0.777832V28.2223H12.7848V23.0765H16.2153V28.2223H28.2223V26.5071H24.7917ZM11.0695 19.6459H7.63894V16.2154H11.0695V19.6459ZM11.0695 14.5001H7.63894V11.0696H11.0695V14.5001ZM11.0695 9.35428H7.63894V5.92372H11.0695V9.35428ZM16.2153 19.6459H12.7848V16.2154H16.2153V19.6459ZM16.2153 14.5001H12.7848V11.0696H16.2153V14.5001ZM16.2153 9.35428H12.7848V5.92372H16.2153V9.35428ZM23.0764 19.6459H19.6459V16.2154H23.0764V19.6459ZM23.0764 14.5001H19.6459V11.0696H23.0764V14.5001Z" fill="white"/>
</svg>
